<svg width="113" height="225" viewBox="0 0 113 225" fill="none" xmlns="http://www.w3.org/2000/svg">
<path d="M112.657 1.53264V0.818359H89.8479V1.53264C95.4228 1.56179 97.0655 2.39269 97.0655 6.83142V104.615L60.5992 0.818359H48.468L10.3881 101.109V6.83142C10.3881 2.3198 12.0889 1.53264 17.8892 1.53264V0.818359H0.873535V1.53264C6.67384 1.53264 8.36741 2.3198 8.36741 6.83142V105.03C8.36741 109.542 6.67384 110.329 0.873535 110.329V111.043H17.8819H17.9982L59.0655 2.88831L97.0655 111.043H112.657V110.329C107.082 110.3 105.439 109.469 105.439 105.03V6.83142C105.439 2.39269 107.082 1.56179 112.657 1.53264Z" fill="url(#paint0_linear_839_1438)"/>
<path d="M112.657 224.286V225H89.8479V224.286C95.4228 224.257 97.0655 223.426 97.0655 218.987V121.204L60.5992 225H48.468L10.3881 124.71V218.987C10.3881 223.499 12.0889 224.286 17.8892 224.286V225H0.873535V224.286C6.67384 224.286 8.36741 223.499 8.36741 218.987V120.788C8.36741 116.277 6.67384 115.49 0.873535 115.49V114.775H17.8819H17.9982L59.0655 222.93L97.0655 114.775H112.657V115.49C107.082 115.519 105.439 116.35 105.439 120.788V218.987C105.439 223.426 107.082 224.257 112.657 224.286Z" fill="url(#paint1_linear_839_1438)"/>
<defs>
<linearGradient id="paint0_linear_839_1438" x1="16.8425" y1="0.818354" x2="109.566" y2="5.27147" gradientUnits="userSpaceOnUse">
<stop stop-color="white"/>
<stop offset="0.442308" stop-color="#C5C5C5"/>
<stop offset="1" stop-color="white"/>
</linearGradient>
<linearGradient id="paint1_linear_839_1438" x1="16.8425" y1="114.775" x2="109.566" y2="119.229" gradientUnits="userSpaceOnUse">
<stop stop-color="white"/>
<stop offset="0.442308" stop-color="#C5C5C5"/>
<stop offset="1" stop-color="white"/>
</linearGradient>
</defs>
</svg>
