<svg xmlns="http://www.w3.org/2000/svg" width="152" height="30" viewBox="0 0 152 30" fill="none">
<g clip-path="url(#clip0_3081_1318)">
<path d="M26.3415 0.422588L17.3087 24.0454L7.705 0.422588H0V0.987138H0.0788478C0.993482 1.04075 1.74727 1.17006 2.33705 1.37191C2.92998 1.57377 3.39992 1.93016 3.75 2.44109C4.10008 2.95202 4.27355 3.65219 4.27355 4.53844V25.3953C4.27355 26.7136 3.93608 27.6061 3.2643 28.0761C2.59251 28.546 1.58326 28.8362 0.239697 28.9434V29.508H9.5595V28.9434C8.18755 28.8362 7.16569 28.546 6.4939 28.0761C5.82212 27.6061 5.48465 26.7104 5.48465 25.3953V3.91712L15.8106 29.4701H16.4571L26.3415 3.77835V25.3543C26.3415 26.2689 26.1932 26.9754 25.8968 27.4737C25.6003 27.972 25.2155 28.3221 24.7456 28.5239C24.2757 28.7258 23.6638 28.8519 22.91 28.9056V29.4701H33.1571V28.9056C32.4033 28.8519 31.7914 28.7226 31.3215 28.5239C30.8516 28.3221 30.4731 27.972 30.1924 27.4737C29.9117 26.9754 29.7698 26.2689 29.7698 25.3543V4.53844C29.7698 3.62381 29.9117 2.91733 30.1924 2.41901C30.4762 1.9207 30.8516 1.57061 31.3215 1.36876C31.7914 1.16691 32.4033 1.04075 33.1571 0.983984V0.419434H26.3383L26.3415 0.422588Z" fill="white"/>
<path d="M119.385 1.92073C117.363 0.640244 115.165 0 112.793 0C110.422 0 108.223 0.640244 106.202 1.92073C104.18 3.20122 102.568 4.96741 101.37 7.21615C100.172 9.46804 99.5723 11.9943 99.5723 14.7981C99.5723 17.602 100.172 20.2039 101.37 22.5221C102.568 24.8402 104.18 26.6663 106.202 28.0004C108.223 29.3345 110.419 30.0031 112.793 30.0031C115.168 30.0031 117.36 29.3345 119.385 28.0004C121.407 26.6663 123.025 24.8402 124.236 22.5221C125.45 20.2039 126.056 17.6304 126.056 14.7981C126.056 11.9659 125.45 9.50273 124.236 7.23822C123.022 4.97372 121.407 3.20122 119.385 1.92073ZM120.943 21.7935C120.202 23.9224 119.123 25.6287 117.71 26.9092C116.294 28.1896 114.657 28.8299 112.797 28.8299C110.936 28.8299 109.312 28.1896 107.924 26.9092C106.536 25.6287 105.464 23.9256 104.71 21.7935C103.956 19.6646 103.578 17.3465 103.578 14.8391C103.578 12.3318 103.947 10.042 104.691 7.96678C105.432 5.8915 106.505 4.23255 107.905 2.99306C109.305 1.75357 110.936 1.13225 112.797 1.13225C114.657 1.13225 116.294 1.75357 117.71 2.99306C119.127 4.23255 120.202 5.8915 120.943 7.96678C121.684 10.042 122.056 12.3192 122.056 14.7981C122.056 17.2771 121.684 19.6646 120.943 21.7935Z" fill="white"/>
<path d="M76.0095 28.9373C74.7259 28.9373 73.253 27.8649 71.7959 25.9158C67.0776 19.6017 65.343 16.0598 64.4094 15.3817C64.5135 15.3912 72.023 15.9715 72.023 8.36114C72.023 2.58002 67.721 0.485825 63.8606 0.485825C61.5898 0.485825 50.0654 0.444824 50.0654 0.444824V1.00937H50.1033C50.8571 1.06299 51.4784 1.18915 51.9609 1.39415C52.4466 1.596 52.8283 1.94293 53.1121 2.44125C53.396 2.93957 53.5379 3.64604 53.5379 4.56383V25.3954C53.5379 26.31 53.396 27.0165 53.1121 27.5148C52.8283 28.0132 52.4403 28.3632 51.942 28.5651C51.4437 28.7669 50.8192 28.8931 50.0654 28.9467V29.5144H60.5206V28.9467C59.7385 28.8931 59.1077 28.7669 58.622 28.5651C58.1394 28.3632 57.7547 28.0132 57.474 27.5148C57.1901 27.0165 57.0482 26.31 57.0482 25.3954V14.3977C59.8142 14.3977 61.4668 16.2932 61.9052 16.9524C63.9994 20.0937 70.2915 29.5144 70.2915 29.5144H76.5961V28.9057C76.41 28.9341 76.2145 28.9373 76.0095 28.9373ZM57.0482 13.8143V1.57392H61.7727C63.6998 1.57392 68.2919 2.00286 68.2919 8.39268C68.2919 14.7825 64.8005 14.6532 63.7502 14.609C62.2584 14.5491 58.9531 13.8143 57.0482 13.8143Z" fill="white"/>
<path d="M96.3613 25.9158C91.6431 19.6017 89.9084 16.0598 88.9748 15.3817C89.0789 15.3912 96.5884 15.9715 96.5884 8.36114C96.5884 2.58002 92.2865 0.485825 88.4261 0.485825C86.1552 0.485825 74.6309 0.444824 74.6309 0.444824V1.00937H74.6687C75.4225 1.06299 76.0438 1.18915 76.5264 1.39415C77.0121 1.596 77.3937 1.94293 77.6775 2.44125C77.9614 2.93957 78.1033 3.64604 78.1033 4.56383V25.3954C78.1033 26.31 77.9614 27.0165 77.6775 27.5148C77.3937 28.0132 77.0058 28.3632 76.5074 28.5651C76.0091 28.7669 75.3846 28.8931 74.6309 28.9467V29.5144H85.0861V28.9467C84.3039 28.8931 83.6731 28.7669 83.1874 28.5651C82.7049 28.3632 82.3201 28.0132 82.0394 27.5148C81.7555 27.0165 81.6136 26.31 81.6136 25.3954V14.3977C84.3796 14.3977 86.0323 16.2932 86.4706 16.9524C88.5648 20.0937 94.8569 29.5144 94.8569 29.5144H100.575V28.9373C99.2913 28.9373 97.8184 27.8649 96.3613 25.9158ZM88.3157 14.609C86.8239 14.5491 83.5186 13.8143 81.6136 13.8143V1.57392H86.3382C88.2652 1.57392 92.8573 2.00286 92.8573 8.39268C92.8573 14.7825 89.3691 14.6532 88.3157 14.609Z" fill="white"/>
<path d="M147.767 25.9158C143.048 19.6017 141.314 16.0598 140.38 15.3817C140.484 15.3912 147.994 15.9715 147.994 8.36114C147.994 2.58002 143.692 0.485825 139.831 0.485825C137.561 0.485825 126.036 0.444824 126.036 0.444824V1.00937H126.074C126.828 1.06299 127.449 1.18915 127.932 1.39415C128.417 1.596 128.799 1.94293 129.083 2.44125C129.367 2.93957 129.509 3.64604 129.509 4.56383V25.3954C129.509 26.31 129.367 27.0165 129.083 27.5148C128.799 28.0132 128.411 28.3632 127.913 28.5651C127.414 28.7669 126.79 28.8931 126.036 28.9467V29.5144H136.491V28.9467C135.709 28.8931 135.078 28.7669 134.593 28.5651C134.11 28.3632 133.725 28.0132 133.445 27.5148C133.161 27.0165 133.019 26.31 133.019 25.3954V14.3977C135.785 14.3977 137.438 16.2932 137.876 16.9524C139.97 20.0937 146.262 29.5144 146.262 29.5144H151.98V28.9373C150.697 28.9373 149.224 27.8649 147.767 25.9158ZM139.721 14.609C138.229 14.5491 134.924 13.8143 133.019 13.8143V1.57392H137.743C139.67 1.57392 144.263 2.00286 144.263 8.39268C144.263 14.7825 140.774 14.6532 139.721 14.609Z" fill="white"/>
<path d="M36.418 0.964941C37.2001 1.01856 37.8404 1.14787 38.3387 1.34972C38.837 1.55157 39.2281 1.90165 39.512 2.39997C39.7958 2.89829 39.9346 3.60792 39.9346 4.52255V25.3857C39.9346 26.3035 39.7927 27.0099 39.512 27.5083C39.2281 28.0066 38.837 28.3567 38.3387 28.5585C37.8404 28.7604 37.2001 28.8897 36.418 28.9433V29.5078H46.8101V28.9433C46.0279 28.8897 45.3877 28.7604 44.8894 28.5585C44.3911 28.3567 44 28.0066 43.7161 27.5083C43.4323 27.0099 43.2903 26.3035 43.2903 25.3857V4.52255C43.2903 3.60476 43.4323 2.89829 43.7161 2.39997C44 1.90165 44.3879 1.55157 44.8894 1.34972C45.3877 1.14787 46.0279 1.01856 46.8101 0.964941V0.400391H36.418V0.964941Z" fill="white"/>
</g>
<defs>
<clipPath id="clip0_3081_1318">
<rect width="151.981" height="30" fill="white"/>
</clipPath>
</defs>
</svg>