<?xml version="1.0" encoding="UTF-8"?><svg id="uuid-91b884ef-5ede-4af9-bd5f-83775eca9c42" xmlns="http://www.w3.org/2000/svg" viewBox="0 0 153.79 307.58"><defs><style>.uuid-e4cfb4b0-2978-47c2-8598-e498975eccf8{fill:#bb234c;}</style></defs><path class="uuid-e4cfb4b0-2978-47c2-8598-e498975eccf8" d="M153.79.98v-.98h-31.38v.98c7.67.04,9.93,1.18,9.93,7.27v134.16L82.17,0h-16.69L13.09,137.6V8.25c0-6.19,2.34-7.27,10.32-7.27v-.98H0v.98c7.98,0,10.31,1.08,10.31,7.27v134.73C10.31,149.17,7.98,150.25,0,150.25v.98h23.4s.16,0,.16,0L80.06,2.84l52.28,148.39h21.45v-.98c-7.67-.04-9.93-1.18-9.93-7.27V8.25c0-6.09,2.26-7.23,9.93-7.27Z"/><path class="uuid-e4cfb4b0-2978-47c2-8598-e498975eccf8" d="M153.79,306.6v.98h-31.38v-.98c7.67-.04,9.93-1.18,9.93-7.27v-134.16l-50.17,142.41h-16.69L13.09,169.98v129.35c0,6.19,2.34,7.27,10.32,7.27v.98H0v-.98c7.98,0,10.31-1.08,10.31-7.27v-134.73C10.31,158.41,7.98,157.33,0,157.33v-.98h23.4s.16,0,.16,0l56.5,148.39,52.28-148.39h21.45v.98c-7.67.04-9.93,1.18-9.93,7.27v134.73c0,6.09,2.26,7.23,9.93,7.27Z"/></svg>