<?xml version="1.0" encoding="UTF-8"?><svg id="uuid-dec73042-8dba-4d2c-9b40-05e75f64abaf" xmlns="http://www.w3.org/2000/svg" viewBox="0 0 481.88 462.89"><defs><style>.uuid-de7f0fae-eaac-4496-8a24-a89b6744d878{fill:#bb234c;}</style></defs><path class="uuid-de7f0fae-eaac-4496-8a24-a89b6744d878" d="M83.52,369.11l-28.64,74.9-30.46-74.9H0v1.79h.25c2.9.17,5.29.58,7.16,1.22,1.88.64,3.37,1.77,4.48,3.39,1.11,1.62,1.66,3.84,1.66,6.65v66.13c0,4.18-1.07,7.01-3.2,8.5-2.13,1.49-5.33,2.41-9.59,2.75v1.79h29.55v-1.79c-4.35-.34-7.59-1.26-9.72-2.75-2.13-1.49-3.2-4.33-3.2-8.5v-68.1l32.74,81.02h2.05l31.34-81.46v68.41c0,2.9-.47,5.14-1.41,6.72-.94,1.58-2.16,2.69-3.65,3.33-1.49.64-3.43,1.04-5.82,1.21v1.79h32.49v-1.79c-2.39-.17-4.33-.58-5.82-1.21-1.49-.64-2.69-1.75-3.58-3.33s-1.34-3.82-1.34-6.72v-66c0-2.9.45-5.14,1.34-6.72.9-1.58,2.09-2.69,3.58-3.33,1.49-.64,3.43-1.04,5.82-1.22v-1.79h-21.62Z"/><path class="uuid-de7f0fae-eaac-4496-8a24-a89b6744d878" d="M378.53,373.86c-6.41-4.06-13.38-6.09-20.9-6.09s-14.49,2.03-20.9,6.09c-6.41,4.06-11.52,9.66-15.32,16.79-3.8,7.14-5.7,15.15-5.7,24.04s1.9,17.14,5.7,24.49c3.8,7.35,8.91,13.14,15.32,17.37,6.41,4.23,13.37,6.35,20.9,6.35s14.48-2.12,20.9-6.35c6.41-4.23,11.54-10.02,15.38-17.37,3.85-7.35,5.77-15.51,5.77-24.49s-1.92-16.79-5.77-23.97c-3.85-7.18-8.97-12.8-15.38-16.86ZM383.47,436.87c-2.35,6.75-5.77,12.16-10.25,16.22-4.49,4.06-9.68,6.09-15.58,6.09s-11.05-2.03-15.45-6.09c-4.4-4.06-7.8-9.46-10.19-16.22-2.39-6.75-3.59-14.1-3.59-22.05s1.17-15.21,3.53-21.79c2.35-6.58,5.75-11.84,10.19-15.77,4.44-3.93,9.61-5.9,15.51-5.9s11.09,1.97,15.58,5.9c4.49,3.93,7.9,9.19,10.25,15.77,2.35,6.58,3.53,13.8,3.53,21.66s-1.18,15.43-3.53,22.18Z"/><path class="uuid-de7f0fae-eaac-4496-8a24-a89b6744d878" d="M241,459.52c-4.07,0-8.74-3.4-13.36-9.58-14.96-20.02-20.46-31.25-23.42-33.4.33.03,24.14,1.87,24.14-22.26,0-18.33-13.64-24.97-25.88-24.97-7.2,0-43.74-.13-43.74-.13v1.79h.12c2.39.17,4.36.57,5.89,1.22,1.54.64,2.75,1.74,3.65,3.32.9,1.58,1.35,3.82,1.35,6.73v66.05c0,2.9-.45,5.14-1.35,6.72-.9,1.58-2.13,2.69-3.71,3.33-1.58.64-3.56,1.04-5.95,1.21v1.8h33.15v-1.8c-2.48-.17-4.48-.57-6.02-1.21-1.53-.64-2.75-1.75-3.64-3.33-.9-1.58-1.35-3.82-1.35-6.72v-34.87c8.77,0,14.01,6.01,15.4,8.1,6.64,9.96,26.59,39.83,26.59,39.83h19.99v-1.93c-.59.09-1.21.1-1.86.1ZM180.88,411.57v-38.81h14.98c6.11,0,20.67,1.36,20.67,21.62s-11.07,19.85-14.4,19.71c-4.73-.19-15.21-2.52-21.25-2.52Z"/><path class="uuid-de7f0fae-eaac-4496-8a24-a89b6744d878" d="M305.53,449.94c-14.96-20.02-20.46-31.25-23.42-33.4.33.03,24.14,1.87,24.14-22.26,0-18.33-13.64-24.97-25.88-24.97-7.2,0-43.74-.13-43.74-.13v1.79h.12c2.39.17,4.36.57,5.89,1.22,1.54.64,2.75,1.74,3.65,3.32.9,1.58,1.35,3.82,1.35,6.73v66.05c0,2.9-.45,5.14-1.35,6.72-.9,1.58-2.13,2.69-3.71,3.33-1.58.64-3.56,1.04-5.95,1.21v1.8h33.15v-1.8c-2.48-.17-4.48-.57-6.02-1.21-1.53-.64-2.75-1.75-3.64-3.33-.9-1.58-1.35-3.82-1.35-6.72v-34.87c8.77,0,14.01,6.01,15.4,8.1,6.64,9.96,26.59,39.83,26.59,39.83h18.13v-1.83c-4.07,0-8.74-3.4-13.36-9.58ZM280.02,414.09c-4.73-.19-15.21-2.52-21.25-2.52v-38.81h14.98c6.11,0,20.67,1.36,20.67,21.62s-11.06,19.85-14.4,19.71Z"/><path class="uuid-de7f0fae-eaac-4496-8a24-a89b6744d878" d="M468.52,449.94c-14.96-20.02-20.46-31.25-23.42-33.4.33.03,24.14,1.87,24.14-22.26,0-18.33-13.64-24.97-25.88-24.97-7.2,0-43.74-.13-43.74-.13v1.79h.12c2.39.17,4.36.57,5.89,1.22,1.54.64,2.75,1.74,3.65,3.32.9,1.58,1.35,3.82,1.35,6.73v66.05c0,2.9-.45,5.14-1.35,6.72-.9,1.58-2.13,2.69-3.71,3.33-1.58.64-3.56,1.04-5.95,1.21v1.8h33.15v-1.8c-2.48-.17-4.48-.57-6.02-1.21-1.53-.64-2.75-1.75-3.64-3.33-.9-1.58-1.35-3.82-1.35-6.72v-34.87c8.77,0,14.01,6.01,15.4,8.1,6.64,9.96,26.59,39.83,26.59,39.83h18.13v-1.83c-4.07,0-8.74-3.4-13.36-9.58ZM443.01,414.09c-4.73-.19-15.21-2.52-21.25-2.52v-38.81h14.98c6.11,0,20.67,1.36,20.67,21.62s-11.06,19.85-14.4,19.71Z"/><path class="uuid-de7f0fae-eaac-4496-8a24-a89b6744d878" d="M115.47,370.83c2.48.17,4.51.58,6.09,1.22,1.58.64,2.82,1.75,3.72,3.33.9,1.58,1.34,3.83,1.34,6.73v66.15c0,2.91-.45,5.15-1.34,6.73-.9,1.58-2.14,2.69-3.72,3.33-1.58.64-3.61,1.05-6.09,1.22v1.79h32.95v-1.79c-2.48-.17-4.51-.58-6.09-1.22-1.58-.64-2.82-1.75-3.72-3.33-.9-1.58-1.35-3.82-1.35-6.73v-66.15c0-2.91.45-5.15,1.35-6.73.9-1.58,2.13-2.69,3.72-3.33,1.58-.64,3.61-1.05,6.09-1.22v-1.79h-32.95v1.79Z"/><path class="uuid-de7f0fae-eaac-4496-8a24-a89b6744d878" d="M317.84.98v-.98h-31.38v.98c7.67.04,9.93,1.18,9.93,7.27v134.16L246.22,0h-16.69l-52.39,137.6V8.25c0-6.19,2.34-7.27,10.32-7.27v-.98h-23.41v.98c7.98,0,10.31,1.08,10.31,7.27v134.73c0,6.19-2.33,7.27-10.31,7.27v.98h23.4s.16,0,.16,0L244.11,2.84l52.28,148.39h21.45v-.98c-7.67-.04-9.93-1.18-9.93-7.27V8.25c0-6.09,2.26-7.23,9.93-7.27Z"/><path class="uuid-de7f0fae-eaac-4496-8a24-a89b6744d878" d="M317.84,306.6v.98h-31.38v-.98c7.67-.04,9.93-1.18,9.93-7.27v-134.16l-50.17,142.41h-16.69l-52.39-137.6v129.35c0,6.19,2.34,7.27,10.32,7.27v.98h-23.41v-.98c7.98,0,10.31-1.08,10.31-7.27v-134.73c0-6.19-2.33-7.27-10.31-7.27v-.98h23.4s.16,0,.16,0l56.5,148.39,52.28-148.39h21.45v.98c-7.67.04-9.93,1.18-9.93,7.27v134.73c0,6.09,2.26,7.23,9.93,7.27Z"/></svg>