<?xml version="1.0" encoding="UTF-8"?><svg id="uuid-6ad753a5-2712-43d4-9b59-16cd5f0c0d8b" xmlns="http://www.w3.org/2000/svg" viewBox="0 0 481.88 136.97"><defs><style>.uuid-79e0e1df-e5cb-4f91-a510-6f9088b20752{fill:#bb234c;}</style></defs><path class="uuid-79e0e1df-e5cb-4f91-a510-6f9088b20752" d="M83.52,1.34l-28.64,74.9L24.43,1.34H0v1.79h.25c2.9.17,5.29.58,7.16,1.22,1.88.64,3.37,1.77,4.48,3.39,1.11,1.62,1.66,3.84,1.66,6.65v66.13c0,4.18-1.07,7.01-3.2,8.5-2.13,1.49-5.33,2.41-9.59,2.75v1.79h29.55v-1.79c-4.35-.34-7.59-1.26-9.72-2.75-2.13-1.49-3.2-4.33-3.2-8.5V12.42l32.74,81.02h2.05L83.52,11.98v68.41c0,2.9-.47,5.14-1.41,6.72-.94,1.58-2.16,2.69-3.65,3.33-1.49.64-3.43,1.04-5.82,1.21v1.79h32.49v-1.79c-2.39-.17-4.33-.58-5.82-1.21-1.49-.64-2.69-1.75-3.58-3.33s-1.34-3.82-1.34-6.72V14.39c0-2.9.45-5.14,1.34-6.72.9-1.58,2.09-2.69,3.58-3.33,1.49-.64,3.43-1.04,5.82-1.22v-1.79h-21.62Z"/><path class="uuid-79e0e1df-e5cb-4f91-a510-6f9088b20752" d="M378.53,6.09c-6.41-4.06-13.38-6.09-20.9-6.09s-14.49,2.03-20.9,6.09c-6.41,4.06-11.52,9.66-15.32,16.79-3.8,7.14-5.7,15.15-5.7,24.04s1.9,17.14,5.7,24.49c3.8,7.35,8.91,13.14,15.32,17.37,6.41,4.23,13.37,6.35,20.9,6.35s14.48-2.12,20.9-6.35c6.41-4.23,11.54-10.02,15.38-17.37,3.85-7.35,5.77-15.51,5.77-24.49s-1.92-16.79-5.77-23.97c-3.85-7.18-8.97-12.8-15.38-16.86ZM383.47,69.1c-2.35,6.75-5.77,12.16-10.25,16.22-4.49,4.06-9.68,6.09-15.58,6.09s-11.05-2.03-15.45-6.09c-4.4-4.06-7.8-9.46-10.19-16.22-2.39-6.75-3.59-14.1-3.59-22.05s1.17-15.21,3.53-21.79c2.35-6.58,5.75-11.84,10.19-15.77,4.44-3.93,9.61-5.9,15.51-5.9s11.09,1.97,15.58,5.9c4.49,3.93,7.9,9.19,10.25,15.77,2.35,6.58,3.53,13.8,3.53,21.66s-1.18,15.43-3.53,22.18Z"/><path class="uuid-79e0e1df-e5cb-4f91-a510-6f9088b20752" d="M241,91.75c-4.07,0-8.74-3.4-13.36-9.58-14.96-20.02-20.46-31.25-23.42-33.4.33.03,24.14,1.87,24.14-22.26,0-18.33-13.64-24.97-25.88-24.97-7.2,0-43.74-.13-43.74-.13v1.79h.12c2.39.17,4.36.57,5.89,1.22,1.54.64,2.75,1.74,3.65,3.32.9,1.58,1.35,3.82,1.35,6.73v66.05c0,2.9-.45,5.14-1.35,6.72-.9,1.58-2.13,2.69-3.71,3.33-1.58.64-3.56,1.04-5.95,1.21v1.8h33.15v-1.8c-2.48-.17-4.48-.57-6.02-1.21-1.53-.64-2.75-1.75-3.64-3.33-.9-1.58-1.35-3.82-1.35-6.72v-34.87c8.77,0,14.01,6.01,15.4,8.1,6.64,9.96,26.59,39.83,26.59,39.83h19.99v-1.93c-.59.09-1.21.1-1.86.1ZM180.88,43.8V4.99h14.98c6.11,0,20.67,1.36,20.67,21.62s-11.07,19.85-14.4,19.71c-4.73-.19-15.21-2.52-21.25-2.52Z"/><path class="uuid-79e0e1df-e5cb-4f91-a510-6f9088b20752" d="M305.53,82.17c-14.96-20.02-20.46-31.25-23.42-33.4.33.03,24.14,1.87,24.14-22.26,0-18.33-13.64-24.97-25.88-24.97-7.2,0-43.74-.13-43.74-.13v1.79h.12c2.39.17,4.36.57,5.89,1.22,1.54.64,2.75,1.74,3.65,3.32.9,1.58,1.35,3.82,1.35,6.73v66.05c0,2.9-.45,5.14-1.35,6.72-.9,1.58-2.13,2.69-3.71,3.33-1.58.64-3.56,1.04-5.95,1.21v1.8h33.15v-1.8c-2.48-.17-4.48-.57-6.02-1.21-1.53-.64-2.75-1.75-3.64-3.33-.9-1.58-1.35-3.82-1.35-6.72v-34.87c8.77,0,14.01,6.01,15.4,8.1,6.64,9.96,26.59,39.83,26.59,39.83h18.13v-1.83c-4.07,0-8.74-3.4-13.36-9.58ZM280.02,46.32c-4.73-.19-15.21-2.52-21.25-2.52V4.99h14.98c6.11,0,20.67,1.36,20.67,21.62s-11.06,19.85-14.4,19.71Z"/><path class="uuid-79e0e1df-e5cb-4f91-a510-6f9088b20752" d="M468.52,82.17c-14.96-20.02-20.46-31.25-23.42-33.4.33.03,24.14,1.87,24.14-22.26,0-18.33-13.64-24.97-25.88-24.97-7.2,0-43.74-.13-43.74-.13v1.79h.12c2.39.17,4.36.57,5.89,1.22,1.54.64,2.75,1.74,3.65,3.32.9,1.58,1.35,3.82,1.35,6.73v66.05c0,2.9-.45,5.14-1.35,6.72-.9,1.58-2.13,2.69-3.71,3.33-1.58.64-3.56,1.04-5.95,1.21v1.8h33.15v-1.8c-2.48-.17-4.48-.57-6.02-1.21-1.53-.64-2.75-1.75-3.64-3.33-.9-1.58-1.35-3.82-1.35-6.72v-34.87c8.77,0,14.01,6.01,15.4,8.1,6.64,9.96,26.59,39.83,26.59,39.83h18.13v-1.83c-4.07,0-8.74-3.4-13.36-9.58ZM443.01,46.32c-4.73-.19-15.21-2.52-21.25-2.52V4.99h14.98c6.11,0,20.67,1.36,20.67,21.62s-11.06,19.85-14.4,19.71Z"/><path class="uuid-79e0e1df-e5cb-4f91-a510-6f9088b20752" d="M115.47,3.06c2.48.17,4.51.58,6.09,1.22,1.58.64,2.82,1.75,3.72,3.33.9,1.58,1.34,3.83,1.34,6.73v66.15c0,2.91-.45,5.15-1.34,6.73-.9,1.58-2.14,2.69-3.72,3.33-1.58.64-3.61,1.05-6.09,1.22v1.79h32.95v-1.79c-2.48-.17-4.51-.58-6.09-1.22-1.58-.64-2.82-1.75-3.72-3.33-.9-1.58-1.35-3.82-1.35-6.73V14.34c0-2.91.45-5.15,1.35-6.73.9-1.58,2.13-2.69,3.72-3.33,1.58-.64,3.61-1.05,6.09-1.22v-1.79h-32.95v1.79Z"/><path class="uuid-79e0e1df-e5cb-4f91-a510-6f9088b20752" d="M4.51,133.82c-1.17-.68-2.06-1.62-2.7-2.82-.63-1.2-.95-2.57-.95-4.1s.34-2.88,1.03-4.09c.69-1.21,1.63-2.15,2.82-2.83,1.19-.68,2.5-1.02,3.93-1.02s2.76.35,3.92,1.05c.54.35.98.71,1.33,1.07l-1.58,1.56c-.48-.5-1.05-.88-1.69-1.14s-1.32-.39-2.05-.39c-1.02,0-1.94.26-2.75.78-.81.52-1.44,1.22-1.9,2.1s-.69,1.86-.69,2.92c0,1.12.21,2.12.65,3,.43.88,1.05,1.57,1.86,2.06.81.49,1.75.74,2.83.74.94,0,1.88-.26,2.83-.77.32-.17.66-.44,1.01-.79l1.54,1.54c-.73.7-1.55,1.24-2.45,1.61-.91.37-1.88.56-2.9.56-1.56,0-2.93-.34-4.09-1.02Z"/><path class="uuid-79e0e1df-e5cb-4f91-a510-6f9088b20752" d="M16.84,119.21h5.62c.92,0,1.75.16,2.52.46.76.31,1.37.79,1.82,1.44s.68,1.46.68,2.43c0,1.17-.3,2.16-.89,2.97s-1.44,1.37-2.54,1.7v.08l3.8,6.3h-2.75l-3.62-6.06h-2.24v6.06h-2.38v-15.39ZM21.95,126.44c1.06,0,1.86-.22,2.37-.68.52-.45.78-1.09.78-1.93s-.26-1.45-.79-1.88c-.52-.43-1.31-.65-2.36-.65h-2.73v5.13h2.73Z"/><path class="uuid-79e0e1df-e5cb-4f91-a510-6f9088b20752" d="M30.6,119.21h8.73v2.1h-6.34v4.3h5.86v2.1h-5.86v4.79h6.42v2.1h-8.81v-15.39Z"/><path class="uuid-79e0e1df-e5cb-4f91-a510-6f9088b20752" d="M46.72,119.21h2.69l5.27,15.39h-2.42l-1.39-4.16h-5.58l-1.41,4.16h-2.42l5.27-15.39ZM50.15,128.34l-2.04-6.1h-.08l-2.04,6.1h4.16Z"/><path class="uuid-79e0e1df-e5cb-4f91-a510-6f9088b20752" d="M59.56,121.31h-4.54v-2.1h11.47v2.1h-4.54v13.29h-2.38v-13.29Z"/><path class="uuid-79e0e1df-e5cb-4f91-a510-6f9088b20752" d="M68.78,119.21h8.73v2.1h-6.34v4.3h5.86v2.1h-5.86v4.79h6.42v2.1h-8.81v-15.39Z"/><path class="uuid-79e0e1df-e5cb-4f91-a510-6f9088b20752" d="M80.83,119.21h5.21c1.62,0,3,.29,4.16.87s2.04,1.41,2.64,2.48.9,2.36.9,3.86c0,1.63-.35,3.06-1.05,4.3-.7,1.24-1.67,2.19-2.91,2.87-1.24.67-2.65,1.01-4.22,1.01h-4.73v-15.39ZM85.74,132.5c1.1,0,2.09-.26,2.95-.78.86-.52,1.53-1.22,2-2.12s.71-1.9.71-3c0-1.7-.46-3-1.39-3.92-.93-.92-2.24-1.37-3.92-1.37h-2.87v11.19h2.52Z"/><path class="uuid-79e0e1df-e5cb-4f91-a510-6f9088b20752" d="M102.67,119.21h5.21c1.44,0,2.61.31,3.5.92.89.61,1.34,1.57,1.34,2.88,0,.75-.21,1.48-.62,2.17-.41.69-.93,1.15-1.57,1.36v.06c.74.17,1.38.58,1.93,1.22.54.64.82,1.48.82,2.52,0,1.36-.46,2.41-1.37,3.15-.92.74-2.1,1.11-3.56,1.11h-5.7v-15.39ZM107.62,125.57c.79,0,1.45-.17,1.97-.52.52-.34.78-.95.78-1.81,0-.65-.22-1.13-.67-1.45s-1.07-.49-1.88-.49h-2.77v4.26h2.57ZM107.88,132.5c.96,0,1.7-.22,2.23-.65s.8-1.05.8-1.86c0-.75-.28-1.33-.85-1.73-.57-.4-1.29-.6-2.18-.6h-2.83v4.83h2.83Z"/><path class="uuid-79e0e1df-e5cb-4f91-a510-6f9088b20752" d="M119.3,128.22l-5.17-9.01h2.63l3.7,6.58h.08l3.7-6.58h2.63l-5.17,9.01v6.38h-2.38v-6.38Z"/><path class="uuid-79e0e1df-e5cb-4f91-a510-6f9088b20752" d="M137.02,134.21c-.9-.42-1.65-1-2.25-1.76l1.7-1.7c.51.59,1.08,1.05,1.72,1.37s1.28.49,1.94.49c.78,0,1.41-.2,1.89-.61.48-.4.72-.92.72-1.54,0-.98-.77-1.82-2.3-2.5l-2.1-.95c-1.08-.48-1.88-1.05-2.41-1.69s-.8-1.4-.8-2.29c0-.79.21-1.5.64-2.12.42-.62,1.01-1.1,1.75-1.44.74-.34,1.58-.51,2.5-.51,1.86,0,3.38.65,4.57,1.96l-1.58,1.58c-.46-.46-.93-.8-1.42-1.02-.49-.22-1.02-.33-1.59-.33-.73,0-1.32.17-1.79.5-.46.33-.7.75-.7,1.26,0,.46.18.87.56,1.22.37.36.91.69,1.63,1l2,.85c2.29.98,3.43,2.47,3.43,4.46,0,.86-.22,1.63-.67,2.29-.44.67-1.06,1.18-1.85,1.55s-1.67.56-2.66.56c-1.05,0-2.02-.21-2.92-.63Z"/><path class="uuid-79e0e1df-e5cb-4f91-a510-6f9088b20752" d="M151,133.82c-1.17-.68-2.06-1.62-2.7-2.82-.63-1.2-.95-2.57-.95-4.1s.34-2.88,1.03-4.09c.69-1.21,1.63-2.15,2.82-2.83,1.19-.68,2.5-1.02,3.93-1.02s2.76.35,3.92,1.05c.54.35.98.71,1.33,1.07l-1.58,1.56c-.48-.5-1.05-.88-1.69-1.14s-1.32-.39-2.05-.39c-1.02,0-1.94.26-2.75.78-.81.52-1.44,1.22-1.9,2.1s-.69,1.86-.69,2.92c0,1.12.21,2.12.65,3,.43.88,1.05,1.57,1.86,2.06.81.49,1.75.74,2.83.74.94,0,1.88-.26,2.83-.77.32-.17.66-.44,1.01-.79l1.54,1.54c-.73.7-1.55,1.24-2.45,1.61-.91.37-1.88.56-2.9.56-1.56,0-2.93-.34-4.09-1.02Z"/><path class="uuid-79e0e1df-e5cb-4f91-a510-6f9088b20752" d="M163.33,119.21h2.38v15.39h-2.38v-15.39Z"/><path class="uuid-79e0e1df-e5cb-4f91-a510-6f9088b20752" d="M169.21,119.21h8.73v2.1h-6.34v4.3h5.86v2.1h-5.86v4.79h6.42v2.1h-8.81v-15.39Z"/><path class="uuid-79e0e1df-e5cb-4f91-a510-6f9088b20752" d="M181.27,119.21h2.87l6.95,11.59h.08l-.08-1.78v-9.82h2.38v15.39h-2.87l-6.95-11.59h-.08l.08,1.78v9.82h-2.38v-15.39Z"/><path class="uuid-79e0e1df-e5cb-4f91-a510-6f9088b20752" d="M199.92,133.82c-1.17-.68-2.06-1.62-2.7-2.82-.63-1.2-.95-2.57-.95-4.1s.34-2.88,1.03-4.09c.69-1.21,1.63-2.15,2.82-2.83,1.19-.68,2.5-1.02,3.93-1.02s2.76.35,3.92,1.05c.54.35.98.71,1.33,1.07l-1.58,1.56c-.48-.5-1.05-.88-1.69-1.14s-1.32-.39-2.05-.39c-1.02,0-1.94.26-2.75.78-.81.52-1.44,1.22-1.9,2.1s-.69,1.86-.69,2.92c0,1.12.21,2.12.65,3,.43.88,1.05,1.57,1.86,2.06.81.49,1.75.74,2.83.74.94,0,1.88-.26,2.83-.77.32-.17.66-.44,1.01-.79l1.54,1.54c-.73.7-1.55,1.24-2.45,1.61-.91.37-1.88.56-2.9.56-1.56,0-2.93-.34-4.09-1.02Z"/><path class="uuid-79e0e1df-e5cb-4f91-a510-6f9088b20752" d="M212.25,119.21h8.73v2.1h-6.34v4.3h5.86v2.1h-5.86v4.79h6.42v2.1h-8.81v-15.39Z"/><path class="uuid-79e0e1df-e5cb-4f91-a510-6f9088b20752" d="M223.55,136.64l.79-4c.03-.09.06-.16.09-.2.03-.04.09-.06.17-.06h1.84c.15,0,.22.06.22.18,0,.01-.01.07-.04.18l-1.25,3.94c-.04.12-.09.2-.14.23-.05.03-.14.05-.26.05h-1.23c-.13,0-.2-.06-.2-.18,0-.04,0-.09.02-.14Z"/><path class="uuid-79e0e1df-e5cb-4f91-a510-6f9088b20752" d="M238.53,133.82c-1.17-.68-2.06-1.62-2.7-2.82-.63-1.2-.95-2.57-.95-4.1s.34-2.88,1.03-4.09c.69-1.21,1.63-2.15,2.82-2.83,1.19-.68,2.5-1.02,3.93-1.02s2.76.35,3.92,1.05c.54.35.98.71,1.33,1.07l-1.58,1.56c-.48-.5-1.05-.88-1.69-1.14s-1.32-.39-2.05-.39c-1.02,0-1.94.26-2.75.78-.81.52-1.44,1.22-1.9,2.1s-.69,1.86-.69,2.92c0,1.12.21,2.12.65,3,.43.88,1.05,1.57,1.86,2.06.81.49,1.75.74,2.83.74.94,0,1.88-.26,2.83-.77.32-.17.66-.44,1.01-.79l1.54,1.54c-.73.7-1.55,1.24-2.45,1.61-.91.37-1.88.56-2.9.56-1.56,0-2.93-.34-4.09-1.02Z"/><path class="uuid-79e0e1df-e5cb-4f91-a510-6f9088b20752" d="M250.86,119.21h5.62c.92,0,1.75.16,2.52.46.76.31,1.37.79,1.82,1.44s.68,1.46.68,2.43c0,1.17-.3,2.16-.89,2.97s-1.44,1.37-2.54,1.7v.08l3.8,6.3h-2.75l-3.62-6.06h-2.24v6.06h-2.38v-15.39ZM255.97,126.44c1.06,0,1.86-.22,2.37-.68.52-.45.78-1.09.78-1.93s-.26-1.45-.79-1.88c-.52-.43-1.31-.65-2.36-.65h-2.73v5.13h2.73Z"/><path class="uuid-79e0e1df-e5cb-4f91-a510-6f9088b20752" d="M268.67,119.21h2.69l5.27,15.39h-2.42l-1.39-4.16h-5.58l-1.41,4.16h-2.42l5.27-15.39ZM272.11,128.34l-2.04-6.1h-.08l-2.04,6.1h4.16Z"/><path class="uuid-79e0e1df-e5cb-4f91-a510-6f9088b20752" d="M279,119.21h8.81v2.1h-6.42v4.97h5.82v2.1h-5.82v6.22h-2.38v-15.39Z"/><path class="uuid-79e0e1df-e5cb-4f91-a510-6f9088b20752" d="M293.82,121.31h-4.54v-2.1h11.47v2.1h-4.54v13.29h-2.38v-13.29Z"/><path class="uuid-79e0e1df-e5cb-4f91-a510-6f9088b20752" d="M303.03,119.21h8.73v2.1h-6.34v4.3h5.86v2.1h-5.86v4.79h6.42v2.1h-8.81v-15.39Z"/><path class="uuid-79e0e1df-e5cb-4f91-a510-6f9088b20752" d="M315.09,119.21h5.21c1.62,0,3,.29,4.16.87s2.04,1.41,2.64,2.48.9,2.36.9,3.86c0,1.63-.35,3.06-1.05,4.3-.7,1.24-1.67,2.19-2.91,2.87-1.24.67-2.65,1.01-4.22,1.01h-4.73v-15.39ZM320,132.5c1.1,0,2.09-.26,2.95-.78.86-.52,1.53-1.22,2-2.12s.71-1.9.71-3c0-1.7-.46-3-1.39-3.92-.93-.92-2.24-1.37-3.92-1.37h-2.87v11.19h2.52Z"/><path class="uuid-79e0e1df-e5cb-4f91-a510-6f9088b20752" d="M336.93,119.21h8.81v2.1h-6.42v4.97h5.82v2.1h-5.82v6.22h-2.38v-15.39Z"/><path class="uuid-79e0e1df-e5cb-4f91-a510-6f9088b20752" d="M351.19,133.79c-1.18-.7-2.12-1.66-2.8-2.87-.68-1.21-1.02-2.55-1.02-4.02s.35-2.89,1.06-4.1,1.65-2.15,2.84-2.83c1.18-.67,2.48-1.01,3.88-1.01s2.73.34,3.92,1.03c1.18.69,2.12,1.64,2.82,2.85.69,1.21,1.04,2.57,1.04,4.06s-.35,2.89-1.06,4.1-1.65,2.16-2.84,2.83c-1.18.67-2.48,1.01-3.88,1.01s-2.77-.35-3.96-1.05ZM350.44,129.81c.47.89,1.12,1.59,1.94,2.11.82.52,1.74.78,2.77.78s1.91-.26,2.74-.77c.83-.51,1.48-1.21,1.96-2.09.48-.88.72-1.86.72-2.94s-.23-2.02-.7-2.91c-.46-.89-1.11-1.59-1.94-2.11s-1.75-.78-2.78-.78-1.91.26-2.74.77-1.48,1.21-1.96,2.09c-.48.88-.72,1.86-.72,2.94s.24,2.02.71,2.91Z"/><path class="uuid-79e0e1df-e5cb-4f91-a510-6f9088b20752" d="M365.73,119.21h5.62c.92,0,1.75.16,2.52.46.76.31,1.37.79,1.82,1.44s.68,1.46.68,2.43c0,1.17-.3,2.16-.89,2.97s-1.44,1.37-2.54,1.7v.08l3.8,6.3h-2.75l-3.62-6.06h-2.24v6.06h-2.38v-15.39ZM370.84,126.44c1.06,0,1.86-.22,2.37-.68.52-.45.78-1.09.78-1.93s-.26-1.45-.79-1.88c-.52-.43-1.31-.65-2.36-.65h-2.73v5.13h2.73Z"/><path class="uuid-79e0e1df-e5cb-4f91-a510-6f9088b20752" d="M385.57,119.21h8.73v2.1h-6.34v4.3h5.86v2.1h-5.86v4.79h6.42v2.1h-8.81v-15.39Z"/><path class="uuid-79e0e1df-e5cb-4f91-a510-6f9088b20752" d="M400.88,121.31h-4.54v-2.1h11.47v2.1h-4.54v13.29h-2.38v-13.29Z"/><path class="uuid-79e0e1df-e5cb-4f91-a510-6f9088b20752" d="M410.09,119.21h8.73v2.1h-6.34v4.3h5.86v2.1h-5.86v4.79h6.42v2.1h-8.81v-15.39Z"/><path class="uuid-79e0e1df-e5cb-4f91-a510-6f9088b20752" d="M422.15,119.21h5.62c.92,0,1.75.16,2.52.46.76.31,1.37.79,1.82,1.44s.68,1.46.68,2.43c0,1.17-.3,2.16-.89,2.97s-1.44,1.37-2.54,1.7v.08l3.8,6.3h-2.75l-3.62-6.06h-2.24v6.06h-2.38v-15.39ZM427.26,126.44c1.06,0,1.86-.22,2.37-.68.52-.45.78-1.09.78-1.93s-.26-1.45-.79-1.88c-.52-.43-1.31-.65-2.36-.65h-2.73v5.13h2.73Z"/><path class="uuid-79e0e1df-e5cb-4f91-a510-6f9088b20752" d="M435.91,119.21h2.87l6.95,11.59h.08l-.08-1.78v-9.82h2.38v15.39h-2.87l-6.95-11.59h-.08l.08,1.78v9.82h-2.38v-15.39Z"/><path class="uuid-79e0e1df-e5cb-4f91-a510-6f9088b20752" d="M451.6,119.21h2.38v15.39h-2.38v-15.39Z"/><path class="uuid-79e0e1df-e5cb-4f91-a510-6f9088b20752" d="M460.81,121.31h-4.54v-2.1h11.47v2.1h-4.54v13.29h-2.38v-13.29Z"/><path class="uuid-79e0e1df-e5cb-4f91-a510-6f9088b20752" d="M473.94,128.22l-5.17-9.01h2.63l3.7,6.58h.08l3.7-6.58h2.63l-5.17,9.01v6.38h-2.38v-6.38Z"/></svg>