<svg width="141" height="50" viewBox="0 0 141 50" fill="none" xmlns="http://www.w3.org/2000/svg">
<path d="M13 1L9 1L1 9V40L9 49H13" stroke="white"/>
<path d="M13 1V1.5H128V1V0.5H13V1ZM128 49V48.5H13V49V49.5H128V49Z" fill="white"/>
<path d="M26.578 19.86H32.29V21.036H27.922V24.452H31.954V25.628H27.922V29.324H32.346V30.5H26.578V19.86ZM36.4 26.58V26.524L33.978 22.94H35.546L37.198 25.516H37.254L38.962 22.94H40.418L37.996 26.538V26.594L40.628 30.5H39.06L37.184 27.672H37.128L35.196 30.5H33.684L36.4 26.58ZM42.0246 22.94H43.3126V23.976H43.3686C43.6206 23.612 43.9893 23.318 44.4746 23.094C44.9693 22.8607 45.4686 22.744 45.9726 22.744C46.6259 22.744 47.2373 22.898 47.8066 23.206C48.3853 23.514 48.8473 23.9713 49.1926 24.578C49.5473 25.1753 49.7246 25.8847 49.7246 26.706C49.7246 27.462 49.5519 28.1433 49.2066 28.75C48.8706 29.3473 48.4086 29.8187 47.8206 30.164C47.2326 30.5 46.5839 30.668 45.8746 30.668C45.3239 30.668 44.8106 30.5607 44.3346 30.346C43.8679 30.122 43.5459 29.8373 43.3686 29.492H43.3126V33.58H42.0246V22.94ZM43.2566 26.706C43.2566 27.2287 43.3639 27.7047 43.5786 28.134C43.8026 28.554 44.1059 28.8853 44.4886 29.128C44.8806 29.3707 45.3239 29.492 45.8186 29.492C46.3133 29.492 46.7519 29.3707 47.1346 29.128C47.5266 28.8853 47.8299 28.554 48.0446 28.134C48.2686 27.7047 48.3806 27.2287 48.3806 26.706C48.3806 26.1833 48.2686 25.712 48.0446 25.292C47.8299 24.8627 47.5266 24.5267 47.1346 24.284C46.7519 24.0413 46.3133 23.92 45.8186 23.92C45.3239 23.92 44.8806 24.0413 44.4886 24.284C44.1059 24.5267 43.8026 24.8627 43.5786 25.292C43.3639 25.712 43.2566 26.1833 43.2566 26.706ZM52.7514 30.5C51.7061 30.5 51.1834 29.9773 51.1834 28.932V19.58H52.4714V28.4C52.4714 28.7547 52.5368 28.9973 52.6674 29.128C52.7981 29.2587 53.0034 29.324 53.2834 29.324H54.0394V30.5H52.7514ZM58.3999 30.668C57.7279 30.668 57.0979 30.5093 56.5099 30.192C55.9219 29.8653 55.4459 29.4033 55.0819 28.806C54.7272 28.2087 54.5499 27.5087 54.5499 26.706C54.5499 25.9127 54.7226 25.2173 55.0679 24.62C55.4226 24.0133 55.8939 23.5513 56.4819 23.234C57.0699 22.9073 57.7092 22.744 58.3999 22.744C59.0719 22.744 59.7019 22.9073 60.2899 23.234C60.8779 23.5513 61.3492 24.0087 61.7039 24.606C62.0679 25.2033 62.2499 25.9033 62.2499 26.706C62.2499 27.4993 62.0726 28.1993 61.7179 28.806C61.3726 29.4033 60.9059 29.8653 60.3179 30.192C59.7299 30.5093 59.0906 30.668 58.3999 30.668ZM55.8939 26.706C55.8939 27.2287 55.9966 27.7047 56.2019 28.134C56.4166 28.554 56.7106 28.8853 57.0839 29.128C57.4666 29.3707 57.9052 29.492 58.3999 29.492C58.8946 29.492 59.3286 29.3707 59.7019 29.128C60.0846 28.8853 60.3786 28.554 60.5839 28.134C60.7986 27.7047 60.9059 27.2287 60.9059 26.706C60.9059 26.1833 60.7986 25.712 60.5839 25.292C60.3786 24.8627 60.0846 24.5267 59.7019 24.284C59.3286 24.0413 58.8946 23.92 58.3999 23.92C57.9052 23.92 57.4666 24.0413 57.0839 24.284C56.7106 24.5267 56.4166 24.8627 56.2019 25.292C55.9966 25.712 55.8939 26.1833 55.8939 26.706ZM63.7082 22.94H64.9962V24.004H65.0522C65.1455 23.6493 65.3415 23.3647 65.6402 23.15C65.9482 22.9353 66.3682 22.828 66.9002 22.828H67.6842V24.06H66.9002C66.1909 24.06 65.6962 24.2373 65.4162 24.592C65.1362 24.9373 64.9962 25.4693 64.9962 26.188V30.5H63.7082V22.94ZM71.868 30.668C71.0747 30.668 70.384 30.5047 69.796 30.178C69.208 29.842 68.7553 29.3753 68.438 28.778C68.1207 28.1807 67.962 27.49 67.962 26.706C67.962 25.95 68.13 25.2733 68.466 24.676C68.802 24.0693 69.2593 23.598 69.838 23.262C70.4167 22.9167 71.056 22.744 71.756 22.744C72.4747 22.744 73.1047 22.9027 73.646 23.22C74.1873 23.528 74.6073 23.9807 74.906 24.578C75.2047 25.1753 75.354 25.894 75.354 26.734C75.354 26.8927 75.3493 27.0047 75.34 27.07H69.306C69.3527 27.7887 69.614 28.372 70.09 28.82C70.5753 29.268 71.2053 29.492 71.98 29.492C72.4467 29.492 72.8527 29.4127 73.198 29.254C73.5433 29.086 73.8513 28.8387 74.122 28.512L74.948 29.31C74.6213 29.73 74.1967 30.0613 73.674 30.304C73.1513 30.5467 72.5493 30.668 71.868 30.668ZM74.024 26.062C73.9867 25.4367 73.7533 24.9233 73.324 24.522C72.8947 24.1207 72.372 23.92 71.756 23.92C71.112 23.92 70.5613 24.1207 70.104 24.522C69.6467 24.914 69.39 25.4273 69.334 26.062H74.024ZM80.675 22.94H81.963V24.004H82.019C82.215 23.6307 82.523 23.332 82.943 23.108C83.363 22.884 83.8343 22.772 84.357 22.772C84.917 22.772 85.4163 22.9073 85.855 23.178C86.2937 23.4487 86.639 23.836 86.891 24.34H86.947C87.5163 23.2947 88.4123 22.772 89.635 22.772C90.587 22.772 91.329 23.066 91.861 23.654C92.393 24.2327 92.659 25.054 92.659 26.118V30.5H91.371V26.258C91.371 25.5487 91.1937 24.9793 90.839 24.55C90.4937 24.1113 90.0177 23.892 89.411 23.892C88.767 23.892 88.2537 24.13 87.871 24.606C87.4977 25.0727 87.311 25.712 87.311 26.524V30.5H86.023V26.258C86.023 25.5487 85.8457 24.9793 85.491 24.55C85.1457 24.1113 84.6697 23.892 84.063 23.892C83.419 23.892 82.9057 24.13 82.523 24.606C82.1497 25.0727 81.963 25.712 81.963 26.524V30.5H80.675V22.94ZM97.9663 30.668C97.2943 30.668 96.6643 30.5093 96.0763 30.192C95.4883 29.8653 95.0123 29.4033 94.6483 28.806C94.2936 28.2087 94.1163 27.5087 94.1163 26.706C94.1163 25.9127 94.289 25.2173 94.6343 24.62C94.989 24.0133 95.4603 23.5513 96.0483 23.234C96.6363 22.9073 97.2756 22.744 97.9663 22.744C98.6383 22.744 99.2683 22.9073 99.8563 23.234C100.444 23.5513 100.916 24.0087 101.27 24.606C101.634 25.2033 101.816 25.9033 101.816 26.706C101.816 27.4993 101.639 28.1993 101.284 28.806C100.939 29.4033 100.472 29.8653 99.8843 30.192C99.2963 30.5093 98.657 30.668 97.9663 30.668ZM95.4603 26.706C95.4603 27.2287 95.563 27.7047 95.7683 28.134C95.983 28.554 96.277 28.8853 96.6503 29.128C97.033 29.3707 97.4716 29.492 97.9663 29.492C98.461 29.492 98.895 29.3707 99.2683 29.128C99.651 28.8853 99.945 28.554 100.15 28.134C100.365 27.7047 100.472 27.2287 100.472 26.706C100.472 26.1833 100.365 25.712 100.15 25.292C99.945 24.8627 99.651 24.5267 99.2683 24.284C98.895 24.0413 98.461 23.92 97.9663 23.92C97.4716 23.92 97.033 24.0413 96.6503 24.284C96.277 24.5267 95.983 24.8627 95.7683 25.292C95.563 25.712 95.4603 26.1833 95.4603 26.706ZM103.275 22.94H104.563V24.004H104.619C104.712 23.6493 104.908 23.3647 105.207 23.15C105.515 22.9353 105.935 22.828 106.467 22.828H107.251V24.06H106.467C105.757 24.06 105.263 24.2373 104.983 24.592C104.703 24.9373 104.563 25.4693 104.563 26.188V30.5H103.275V22.94ZM111.434 30.668C110.641 30.668 109.95 30.5047 109.362 30.178C108.774 29.842 108.322 29.3753 108.004 28.778C107.687 28.1807 107.528 27.49 107.528 26.706C107.528 25.95 107.696 25.2733 108.032 24.676C108.368 24.0693 108.826 23.598 109.404 23.262C109.983 22.9167 110.622 22.744 111.322 22.744C112.041 22.744 112.671 22.9027 113.212 23.22C113.754 23.528 114.174 23.9807 114.472 24.578C114.771 25.1753 114.92 25.894 114.92 26.734C114.92 26.8927 114.916 27.0047 114.906 27.07H108.872C108.919 27.7887 109.18 28.372 109.656 28.82C110.142 29.268 110.772 29.492 111.546 29.492C112.013 29.492 112.419 29.4127 112.764 29.254C113.11 29.086 113.418 28.8387 113.688 28.512L114.514 29.31C114.188 29.73 113.763 30.0613 113.24 30.304C112.718 30.5467 112.116 30.668 111.434 30.668ZM113.59 26.062C113.553 25.4367 113.32 24.9233 112.89 24.522C112.461 24.1207 111.938 23.92 111.322 23.92C110.678 23.92 110.128 24.1207 109.67 24.522C109.213 24.914 108.956 25.4273 108.9 26.062H113.59Z" fill="white"/>
<path d="M128 49L132 49L140 41L140 10L132 0.999999L128 0.999999" stroke="white"/>
</svg>
