{
  "asset": {
    "generator": "glTF-Transform v4.2.0",
    "version": "2.0"
  },
  "accessors": [
    {
      "type": "VEC3",
      "componentType": 5126,
      "count": 2616,
      "max": [
        0.9387180209159851,
        -3.5568289756774902,
        14.138195991516113
      ],
      "min": [
        -1.9617033004760742,
        -6.431785583496094,
        12.25200080871582
      ],
      "bufferView": 0,
      "byteOffset": 0
    },
    {
      "type": "VEC3",
      "componentType": 5126,
      "count": 2616,
      "bufferView": 0,
      "byteOffset": 12
    },
    {
      "type": "VEC2",
      "componentType": 5126,
      "count": 2616,
      "bufferView": 0,
      "byteOffset": 24
    },
    {
      "type": "VEC3",
      "componentType": 5126,
      "count": 2616,
      "max": [
        1.2779045104980469,
        -0.23112674057483673,
        14.3947172164917
      ],
      "min": [
        -1.6222422122955322,
        -3.1310489177703857,
        12.570476531982422
      ],
      "bufferView": 1,
      "byteOffset": 0
    },
    {
      "type": "VEC3",
      "componentType": 5126,
      "count": 2616,
      "bufferView": 1,
      "byteOffset": 12
    },
    {
      "type": "VEC2",
      "componentType": 5126,
      "count": 2616,
      "bufferView": 1,
      "byteOffset": 24
    },
    {
      "type": "VEC3",
      "componentType": 5126,
      "count": 108837,
      "max": [
        10.578940391540527,
        14.738869667053223,
        15.551071166992188
      ],
      "min": [
        -10.578940391540527,
        -7.278314113616943,
        -8.435219764709473
      ],
      "bufferView": 2,
      "byteOffset": 0
    },
    {
      "type": "VEC3",
      "componentType": 5126,
      "count": 108837,
      "bufferView": 2,
      "byteOffset": 12
    },
    {
      "type": "VEC2",
      "componentType": 5126,
      "count": 108837,
      "bufferView": 2,
      "byteOffset": 24
    },
    {
      "type": "VEC3",
      "componentType": 5126,
      "count": 2616,
      "max": [
        1.9617033004760742,
        6.431786060333252,
        14.138195991516113
      ],
      "min": [
        -0.9387180209159851,
        3.5568294525146484,
        12.25200080871582
      ],
      "bufferView": 3,
      "byteOffset": 0
    },
    {
      "type": "VEC3",
      "componentType": 5126,
      "count": 2616,
      "bufferView": 3,
      "byteOffset": 12
    },
    {
      "type": "VEC2",
      "componentType": 5126,
      "count": 2616,
      "bufferView": 3,
      "byteOffset": 24
    },
    {
      "type": "VEC3",
      "componentType": 5126,
      "count": 2616,
      "max": [
        1.6222422122955322,
        3.131049394607544,
        14.3947172164917
      ],
      "min": [
        -1.2779045104980469,
        0.23112717270851135,
        12.570476531982422
      ],
      "bufferView": 4,
      "byteOffset": 0
    },
    {
      "type": "VEC3",
      "componentType": 5126,
      "count": 2616,
      "bufferView": 4,
      "byteOffset": 12
    },
    {
      "type": "VEC2",
      "componentType": 5126,
      "count": 2616,
      "bufferView": 4,
      "byteOffset": 24
    }
  ],
  "bufferViews": [
    {
      "buffer": 0,
      "byteOffset": 0,
      "byteLength": 83712,
      "byteStride": 32,
      "target": 34962
    },
    {
      "buffer": 0,
      "byteOffset": 83712,
      "byteLength": 83712,
      "byteStride": 32,
      "target": 34962
    },
    {
      "buffer": 0,
      "byteOffset": 167424,
      "byteLength": 3482784,
      "byteStride": 32,
      "target": 34962
    },
    {
      "buffer": 0,
      "byteOffset": 3650208,
      "byteLength": 83712,
      "byteStride": 32,
      "target": 34962
    },
    {
      "buffer": 0,
      "byteOffset": 3733920,
      "byteLength": 83712,
      "byteStride": 32,
      "target": 34962
    }
  ],
  "buffers": [
    {
      "uri": "unpacked-demo-ring.bin",
      "byteLength": 3817632
    }
  ],
  "materials": [
    {
      "pbrMetallicRoughness": {
        "metallicFactor": 0
      }
    },
    {
      "extras": {
        "uuid": "0f28794b-3f37-4544-97dd-e6c3def72168",
        "separateEnvMapIntensity": true,
        "rootPath": "https://packs.ijewel3d.com/files/1_gem_diamond_white_1_4aa77fb087.dmat",
        "cloneId": "0_6"
      },
      "pbrMetallicRoughness": {
        "metallicFactor": 0
      }
    },
    {
      "name": "Metal 01",
      "extras": {
        "uuid": "7c413f13-4d0f-4807-aa70-0841f746d73d",
        "cloneId": "0_1_2_1",
        "rootPath": "https://packs.ijewel3d.com/files/1_metal_rosegold_polished_a05ee2dd11.pmat?localhost"
      },
      "doubleSided": true,
      "pbrMetallicRoughness": {
        "baseColorFactor": [
          0.8879231178794776,
          0.4286904966038916,
          0.22696587349938613,
          1
        ],
        "roughnessFactor": 0
      },
      "extensions": {
        "KHR_materials_ior": {
          "ior": 1.4999999999999998
        }
      }
    }
  ],
  "meshes": [
    {
      "primitives": [
        {
          "attributes": {
            "POSITION": 0,
            "NORMAL": 1,
            "TEXCOORD_0": 2
          },
          "mode": 4,
          "material": 1,
          "extras": {
            "normalsCaptureOffsets": {
              "center": [
                -0.5114926397800446,
                -4.994307279586792,
                13.195098400115967
              ],
              "offsetMatrix": [
                -0.26837539359864937,
                -1.5039592523632357,
                -0.231444675914297,
                0,
                1.5215573769726265,
                -0.2680110706611184,
                -0.022773608641327613,
                0,
                0.01797830242924546,
                0.23186646135520517,
                -1.5275471015348967,
                0,
                0,
                0,
                0,
                1
              ],
              "offsetMatrixInv": [
                -0.11240922815722228,
                0.637305410339532,
                0.007530225005168908,
                0,
                -0.6299344230898046,
                -0.11225663123073555,
                0.09711743542130835,
                0,
                -0.09694077028362671,
                -0.00953874248827247,
                -0.6398142108144597,
                0,
                0,
                0,
                0,
                0.9999999999999999
              ],
              "radius": 1,
              "centerOffset": [
                1.9244395648700003,
                0.1088024381107586,
                -8.93129743885481
              ]
            }
          }
        }
      ]
    },
    {
      "primitives": [
        {
          "attributes": {
            "POSITION": 3,
            "NORMAL": 4,
            "TEXCOORD_0": 5
          },
          "mode": 4,
          "material": 1,
          "extras": {
            "normalsCaptureOffsets": {
              "center": [
                -0.17216885089874268,
                -1.6810878291726112,
                13.48259687423706
              ],
              "offsetMatrix": [
                -0.26608972591062485,
                -1.4980380869049836,
                -0.05445938258269695,
                0,
                1.4990276627940378,
                -0.2659133802183246,
                -0.00968590747081093,
                0,
                -0.000018640733157149317,
                0.055314019989011205,
                -1.5214558932974693,
                0,
                0,
                0,
                0,
                1
              ],
              "offsetMatrixInv": [
                -0.11479836948932363,
                0.6467214429990732,
                -0.000008042120999609915,
                0,
                -0.646294512954478,
                -0.1147222891450967,
                0.0238639777725623,
                0,
                -0.023495263871964645,
                -0.004178764816522946,
                -0.6563975937167059,
                0,
                0,
                0,
                0,
                1
              ],
              "radius": 1,
              "centerOffset": [
                0.7894653719093141,
                0.025172354870492006,
                -8.890060203287955
              ]
            }
          }
        }
      ]
    },
    {
      "primitives": [
        {
          "attributes": {
            "POSITION": 6,
            "NORMAL": 7,
            "TEXCOORD_0": 8
          },
          "mode": 4,
          "material": 2
        }
      ]
    },
    {
      "primitives": [
        {
          "attributes": {
            "POSITION": 9,
            "NORMAL": 10,
            "TEXCOORD_0": 11
          },
          "mode": 4,
          "material": 1,
          "extras": {
            "normalsCaptureOffsets": {
              "center": [
                0.5114926397800446,
                4.99430775642395,
                13.195098400115967
              ],
              "offsetMatrix": [
                0.04205519142397487,
                1.5271381101732853,
                -0.23144470821939586,
                0,
                -1.5442970510536433,
                0.04597915912213255,
                0.02277355188692864,
                0,
                -0.0293952141243748,
                -0.23069722368266637,
                -1.5275473190719155,
                0,
                0,
                0,
                0,
                1
              ],
              "offsetMatrixInv": [
                0.01761484241958741,
                -0.6468297559058498,
                -0.012312203253834432,
                0,
                0.6396427231172608,
                0.019258398668464564,
                -0.09662767197606514,
                0,
                -0.09694075632736054,
                0.009538716011975028,
                -0.6398141205124922,
                0,
                0,
                0,
                0,
                0.9999999999999999
              ],
              "radius": 1,
              "centerOffset": [
                1.9244396569319908,
                -0.10880199310157551,
                -8.931296210925057
              ]
            }
          }
        }
      ]
    },
    {
      "primitives": [
        {
          "attributes": {
            "POSITION": 12,
            "NORMAL": 13,
            "TEXCOORD_0": 14
          },
          "mode": 4,
          "material": 1,
          "extras": {
            "normalsCaptureOffsets": {
              "center": [
                0.17216885089874268,
                1.6810882836580276,
                13.48259687423706
              ],
              "offsetMatrix": [
                0.04309268388231275,
                1.5208763834919035,
                -0.05445938286458152,
                0,
                -1.5218096698017742,
                0.04346595983372892,
                0.009685911579699882,
                0,
                -0.011230634141319147,
                -0.05416192502030078,
                -1.521455926533681,
                0,
                0,
                0,
                0,
                1
              ],
              "offsetMatrixInv": [
                0.01859135903723958,
                -0.6565501938773504,
                -0.004845201846962321,
                0,
                0.6561475487109749,
                0.018752400462547364,
                -0.023366931541104523,
                0,
                -0.02349526296730606,
                0.004178766406681573,
                -0.6563975793843174,
                0,
                0,
                0,
                0,
                0.9999999999999999
              ],
              "radius": 1,
              "centerOffset": [
                0.7894656503686641,
                -0.025172428836266567,
                -8.890060019736927
              ]
            }
          }
        }
      ]
    }
  ],
  "nodes": [
    {
      "name": "Diamond_2",
      "extras": {
        "originalName": "Diamond_2",
        "transformData": {
          "inheritType": 1,
          "eulerOrder": "ZYX",
          "rotation": [
            0.0000017075472925031877,
            0,
            0
          ],
          "parentMatrix": {},
          "parentMatrixWorld": {}
        },
        "TransformAnimationPlugin": {
          "transforms": []
        },
        "gltfUUID": "4bd2c0df-b024-4c92-8c80-514b71ed4461"
      },
      "mesh": 0
    },
    {
      "name": "Diamond_4",
      "extras": {
        "originalName": "Diamond_4",
        "transformData": {
          "inheritType": 1,
          "eulerOrder": "ZYX",
          "rotation": [
            0.0000017075472925031877,
            0,
            0
          ],
          "parentMatrix": {},
          "parentMatrixWorld": {}
        },
        "TransformAnimationPlugin": {
          "transforms": []
        },
        "gltfUUID": "7a8bd097-7e83-4a49-a090-cfae4efaf2c0"
      },
      "mesh": 1
    },
    {
      "name": "structure",
      "extras": {
        "originalName": "structure",
        "transformData": {
          "inheritType": 1,
          "eulerOrder": "ZYX",
          "rotation": [
            40.00000225146627,
            0,
            0
          ],
          "parentMatrix": {},
          "parentMatrixWorld": {}
        },
        "TransformAnimationPlugin": {
          "transforms": []
        },
        "gltfUUID": "7d4f0fd1-5562-433a-bb4f-7016d9002340"
      },
      "rotation": [
        0.3420201617885142,
        0,
        0,
        0.939692614065982
      ],
      "mesh": 2
    },
    {
      "name": "Diamond_3",
      "extras": {
        "originalName": "Diamond_3",
        "transformData": {
          "inheritType": 1,
          "eulerOrder": "ZYX",
          "rotation": [
            0.0000017075472925031877,
            0,
            0
          ],
          "parentMatrix": {},
          "parentMatrixWorld": {}
        },
        "TransformAnimationPlugin": {
          "transforms": []
        },
        "gltfUUID": "eb2ebe23-d796-4108-a5a2-b878e4148c02"
      },
      "mesh": 3
    },
    {
      "name": "Diamond",
      "extras": {
        "originalName": "Diamond",
        "transformData": {
          "inheritType": 1,
          "eulerOrder": "ZYX",
          "rotation": [
            0.0000017075472925031877,
            0,
            0
          ],
          "parentMatrix": {},
          "parentMatrixWorld": {}
        },
        "TransformAnimationPlugin": {
          "transforms": []
        },
        "gltfUUID": "6d3fe06f-03dc-4a00-ba86-bc123234890b"
      },
      "mesh": 4
    },
    {
      "name": "Ring_jewel",
      "extras": {
        "originalName": "Ring_jewel",
        "transformData": {
          "inheritType": 1,
          "eulerOrder": "ZYX",
          "rotation": [
            -40.00000225146627,
            0,
            0
          ],
          "scale": [
            0.10000000149011612,
            0.10000000894069672,
            0.10000000894069672
          ],
          "parentMatrix": {},
          "parentMatrixWorld": {}
        },
        "autoCentered": true,
        "isCentered": true,
        "autoScaled": true,
        "autoScaleRadius": 2,
        "TransformAnimationPlugin": {
          "transforms": []
        },
        "gltfUUID": "73883440-27c0-4051-8b9d-69b7106d606e"
      },
      "translation": [
        0,
        -0.3842694545384198,
        -0.36651484160213516
      ],
      "rotation": [
        -0.34202016178851413,
        0,
        0,
        0.939692614065982
      ],
      "scale": [
        0.10301362228477078,
        0.10301362995988361,
        0.10301362995988361
      ],
      "children": [
        0,
        1,
        2,
        3,
        4
      ]
    }
  ],
  "scenes": [
    {
      "name": "Scene",
      "extras": {
        "rootSceneModelRoot": true,
        "gltfUUID": "753666f7-4cf3-4d3f-9203-9221c655acfd"
      },
      "nodes": [
        5
      ]
    }
  ],
  "scene": 0,
  "extensionsUsed": [
    "KHR_materials_ior"
  ]
}